<?xml version="1.0" standalone="no"?>
<!DOCTYPE svg PUBLIC "-//W3C//DTD SVG 20010904//EN"
 "http://www.w3.org/TR/2001/REC-SVG-20010904/DTD/svg10.dtd">
<svg version="1.0" xmlns="http://www.w3.org/2000/svg"
 width="239.000000pt" height="239.000000pt" viewBox="0 0 239.000000 239.000000"
 preserveAspectRatio="xMidYMid meet">
<metadata>
Created by potrace 1.14, written by Peter Selinger 2001-2017
</metadata>
<g transform="translate(0.000000,239.000000) scale(0.100000,-0.100000)"
fill="#000000" stroke="none">
<path d="M761 2359 c-24 -23 -54 -85 -65 -134 -3 -17 -9 -41 -13 -55 -21 -87
-6 -446 22 -490 5 -8 10 -26 10 -40 2 -29 37 -153 64 -227 l19 -52 -43 -38
c-49 -44 -97 -111 -116 -165 -7 -21 -17 -38 -22 -38 -5 0 -7 -18 -5 -40 2 -22
-1 -40 -6 -40 -15 0 -1 -142 19 -180 23 -46 73 -99 105 -112 14 -5 27 -9 29
-8 2 1 7 -2 10 -7 8 -11 72 -33 96 -33 17 0 17 -1 -1 -21 -10 -11 -48 -41 -84
-67 -76 -54 -83 -60 -98 -89 -10 -18 -9 -23 7 -28 19 -6 109 31 123 50 13 17
13 5 1 -80 -4 -33 -8 -130 -7 -215 0 -135 3 -161 22 -202 17 -39 26 -48 46
-48 29 0 35 7 38 49 3 37 5 37 58 10 60 -31 143 -36 213 -11 31 11 58 19 58
16 5 -15 7 -26 8 -44 1 -15 8 -20 30 -20 30 0 46 23 58 86 7 37 10 317 3 369
-4 36 -3 40 18 43 15 2 22 9 18 17 -3 10 8 8 40 -6 24 -11 49 -17 54 -14 26
16 3 45 -85 110 -52 39 -94 73 -95 77 0 4 30 16 68 27 83 25 158 72 174 108 7
16 15 30 18 33 10 10 14 46 12 110 -1 36 -2 84 -2 107 1 23 -5 45 -12 50 -18
11 -38 49 -38 73 0 11 -4 20 -9 20 -5 0 -12 9 -16 19 -9 28 -105 125 -143 145
-18 9 -32 20 -32 23 0 14 109 191 153 247 47 61 188 238 216 271 25 30 81 119
81 128 -1 4 6 15 15 24 12 12 16 34 14 98 -2 77 -3 84 -26 94 -36 17 -56 14
-99 -15 -84 -56 -174 -158 -248 -282 -53 -89 -99 -182 -93 -189 4 -3 0 -11 -7
-19 -13 -12 -54 -134 -91 -266 l-16 -56 -57 5 c-76 8 -143 5 -157 -7 -6 -5
-20 -7 -30 -6 -11 2 -28 -1 -39 -6 -12 -7 -22 -6 -29 1 -14 14 -17 260 -5 363
5 40 11 100 13 132 2 33 7 81 10 106 13 103 7 229 -15 294 -19 60 -97 84 -139
45z"/>
</g>
</svg>
